<?xml version="1.0" standalone="no"?><svg xmlns="http://www.w3.org/2000/svg" viewBox="0 0 1440 320"><path fill="#0099ff" fill-opacity="1" d="M0,32L8,74.7C16,117,32,203,48,218.7C64,235,80,181,96,170.7C112,160,128,192,144,208C160,224,176,224,192,192C208,160,224,96,240,106.7C256,117,272,203,288,197.3C304,192,320,96,336,53.3C352,11,368,21,384,26.7C400,32,416,32,432,58.7C448,85,464,139,480,154.7C496,171,512,149,528,128C544,107,560,85,576,90.7C592,96,608,128,624,165.3C640,203,656,245,672,245.3C688,245,704,203,720,165.3C736,128,752,96,768,74.7C784,53,800,43,816,48C832,53,848,75,864,101.3C880,128,896,160,912,186.7C928,213,944,235,960,245.3C976,256,992,256,1008,229.3C1024,203,1040,149,1056,144C1072,139,1088,181,1104,202.7C1120,224,1136,224,1152,208C1168,192,1184,160,1200,144C1216,128,1232,128,1248,117.3C1264,107,1280,85,1296,106.7C1312,128,1328,192,1344,234.7C1360,277,1376,299,1392,304C1408,309,1424,299,1432,293.3L1440,288L1440,320L1432,320C1424,320,1408,320,1392,320C1376,320,1360,320,1344,320C1328,320,1312,320,1296,320C1280,320,1264,320,1248,320C1232,320,1216,320,1200,320C1184,320,1168,320,1152,320C1136,320,1120,320,1104,320C1088,320,1072,320,1056,320C1040,320,1024,320,1008,320C992,320,976,320,960,320C944,320,928,320,912,320C896,320,880,320,864,320C848,320,832,320,816,320C800,320,784,320,768,320C752,320,736,320,720,320C704,320,688,320,672,320C656,320,640,320,624,320C608,320,592,320,576,320C560,320,544,320,528,320C512,320,496,320,480,320C464,320,448,320,432,320C416,320,400,320,384,320C368,320,352,320,336,320C320,320,304,320,288,320C272,320,256,320,240,320C224,320,208,320,192,320C176,320,160,320,144,320C128,320,112,320,96,320C80,320,64,320,48,320C32,320,16,320,8,320L0,320Z"></path></svg>